<?xml version="1.0" encoding="utf-8"?>
<!-- Generator: Adobe Illustrator 19.2.1, SVG Export Plug-In . SVG Version: 6.00 Build 0)  -->
<svg version="1.0" id="Ebene_1" xmlns="http://www.w3.org/2000/svg" xmlns:xlink="http://www.w3.org/1999/xlink" x="0px" y="0px"
	 viewBox="0 0 73.43583 20.14049" style="enable-background:new 0 0 73.43583 20.14049;" xml:space="preserve">
<style type="text/css">
	.st0{fill-rule:evenodd;clip-rule:evenodd;fill:#005596;}
	.st1{fill-rule:evenodd;clip-rule:evenodd;fill:#F7AA0F;}
	.st2{fill-rule:evenodd;clip-rule:evenodd;fill:#FAB31E;}
	.st3{fill-rule:evenodd;clip-rule:evenodd;fill:#E40520;}
	.st4{fill-rule:evenodd;clip-rule:evenodd;fill:#FFFFFF;}
	.st5{fill-rule:evenodd;clip-rule:evenodd;fill:#06326E;}
</style>
<g>
	<g>
		<polygon class="st0" points="52.97421,13.55203 55.13865,6.41513 57.06981,6.41513 54.90521,13.55203 52.97421,13.55203 		"/>
		<path class="st0" d="M52.11075,6.41714L50.3735,9.44252c-0.44215,0.79233-0.70074,1.19259-0.82511,1.69329h-0.02643
			c0.03082-0.63476-0.05771-1.41406-0.06594-1.8546l-0.19197-2.86407h-3.25092L45.9798,6.60917
			c0.83507,0,1.33037,0.41951,1.4667,1.27784l0.63358,5.66503h2.00079l4.04559-7.13489H52.11075L52.11075,6.41714z"/>
		<path class="st0" d="M67.12937,13.55203l-0.05325-1.06143l-2.41145-0.00189l-0.49329,1.06332h-2.09672l3.8018-7.12322h2.57365
			l0.64378,7.12322H67.12937L67.12937,13.55203z M66.90786,9.34219c-0.02154-0.5274-0.03941-1.24328-0.00356-1.67654h-0.0285
			C66.75834,8.02,66.25346,9.08383,66.03144,9.60712l-0.71849,1.56435h1.69318L66.90786,9.34219L66.90786,9.34219z"/>
		<path class="st0" d="M59.09736,13.7547c-1.36353,0-2.26833-0.43242-2.91425-0.81805l0.91987-1.40493
			c0.57994,0.32441,1.03534,0.69868,2.08314,0.69868c0.33682,0,0.66129-0.08758,0.84576-0.40676
			c0.26855-0.46425-0.06194-0.71393-0.81632-1.14112L58.843,10.4403c-1.11842-0.76424-1.60214-1.49007-1.07574-2.75701
			c0.33694-0.81047,1.22548-1.4248,2.69129-1.4248c1.01068,0,1.95849,0.4372,2.51078,0.86451l-1.05759,1.24033
			c-0.53915-0.43576-0.98554-0.65623-1.49681-0.65623c-0.4076,0-0.71726,0.1572-0.8241,0.36921
			c-0.20126,0.39853,0.06494,0.67024,0.65272,1.035l0.44305,0.28185c1.3578,0.85638,1.68126,1.75433,1.341,2.5938
			C61.44209,13.43218,60.29618,13.7547,59.09736,13.7547L59.09736,13.7547z"/>
		<path class="st0" d="M69.66859,7.38241h-0.08352V6.87321h0.19308c0.12298,0,0.18575,0.04301,0.18575,0.1464
			c0,0.09227-0.05654,0.13039-0.13283,0.13901l0.1425,0.2238h-0.09464l-0.13155-0.21763h-0.07879V7.38241L69.66859,7.38241z
			 M69.76218,7.09334c0.06271,0,0.11796-0.00618,0.11796-0.07992c0-0.06148-0.0602-0.06894-0.11057-0.06894h-0.10099v0.14885
			H69.76218L69.76218,7.09334z M69.75961,7.57923c-0.26431,0-0.45255-0.19809-0.45255-0.46001
			c0-0.27673,0.20905-0.46003,0.45255-0.46003c0.24112,0,0.45018,0.1833,0.45018,0.46003
			C70.20979,7.39588,70.00073,7.57923,69.75961,7.57923L69.75961,7.57923z M69.75961,6.73909
			c-0.1992,0-0.35412,0.15631-0.35412,0.38012c0,0.20906,0.13539,0.38,0.35412,0.38c0.19683,0,0.35175-0.15492,0.35175-0.38
			C70.11136,6.8954,69.95644,6.73909,69.75961,6.73909L69.75961,6.73909z"/>
		<polygon class="st1" points="73.43583,15.76822 41.80802,15.76822 41.80802,20 73.43583,20 73.43583,15.76822 		"/>
		<polygon class="st0" points="73.37718,0 41.74942,0 41.74942,4.23183 73.37718,4.23183 73.37718,0 		"/>
	</g>
	<g>
		<path class="st2" d="M16.61802,17.54821c1.7511,1.61375,4.103,2.59228,6.66096,2.59228c5.49354,0,9.9399-4.48071,9.9399-9.99144
			c0-5.52785-4.44636-10.00856-9.9399-10.00856c-2.55796,0-4.90987,0.97852-6.66096,2.59228
			c-2.00859,1.83688-3.27898,4.48071-3.27898,7.41628C13.33905,13.08468,14.60944,15.72845,16.61802,17.54821L16.61802,17.54821z"/>
		<path class="st2" d="M31.89701,15.71132c0-0.1717,0.13734-0.30904,0.30899-0.30904c0.18884,0,0.32618,0.13734,0.32618,0.30904
			c0,0.18884-0.13734,0.32618-0.32618,0.32618C32.03435,16.0375,31.89701,15.90015,31.89701,15.71132L31.89701,15.71132z
			 M32.20599,15.96882c0.13734,0,0.25751-0.12016,0.25751-0.2575c0-0.13734-0.12016-0.24037-0.25751-0.24037
			c-0.12016,0-0.24032,0.10303-0.24032,0.24037C31.96568,15.84866,32.08583,15.96882,32.20599,15.96882L32.20599,15.96882z
			 M32.17168,15.86579h-0.06866v-0.29181h0.12016c0.01719,0,0.05149,0,0.06867,0.01712
			c0.03431,0.01719,0.03431,0.03436,0.03431,0.06868c0,0.03436-0.01713,0.06867-0.05149,0.06867l0.06867,0.13734h-0.08585
			l-0.03431-0.12016h-0.05149V15.86579v-0.17164h0.03431c0.01719,0,0.03437,0,0.03437,0c0.01712,0,0.01712-0.01719,0.01712-0.03436
			c0-0.01714,0-0.01714-0.01712-0.03431c0,0-0.01719,0-0.03437,0h-0.03431v0.06868V15.86579L32.17168,15.86579z"/>
		<path class="st3" d="M19.82835,9.08467c-0.03436-0.36048-0.10303-0.70383-0.17171-1.06437h-6.07723
			c0.06867-0.36048,0.17165-0.70384,0.27464-1.0472h5.51078c-0.12023-0.36049-0.25757-0.72102-0.41203-1.06437h-4.66954
			c0.17165-0.36049,0.36055-0.72102,0.56649-1.06439h3.51937c-0.22319-0.36047-0.48069-0.72102-0.75538-1.0472h-2.0086
			c0.30899-0.37767,0.65235-0.7382,1.01288-1.06437c-1.76827-1.59658-4.10298-2.59228-6.67813-2.59228
			C4.46353,0.14049,0,4.6212,0,10.14905c0,5.51073,4.46353,9.99144,9.9399,9.99144c2.57515,0,4.90985-0.97853,6.67813-2.59228l0,0
			l0,0c0.36049-0.32617,0.68673-0.66954,0.99572-1.0472h-2.0086c-0.27469-0.34336-0.51501-0.68671-0.75539-1.06437h3.51937
			c0.22314-0.34336,0.41197-0.68672,0.58368-1.06439h-4.66954c-0.15453-0.34336-0.30899-0.68672-0.4292-1.0472h5.51078
			c0.12016-0.34335,0.20595-0.70389,0.29181-1.06437c0.06867-0.34336,0.13734-0.7039,0.17171-1.06438
			c0.03431-0.34336,0.05149-0.68671,0.05149-1.04725C19.87984,9.78857,19.86266,9.42803,19.82835,9.08467L19.82835,9.08467z"/>
		<path class="st4" d="M31.89701,12.46663c0-0.18883,0.13734-0.32617,0.30899-0.32617c0.18884,0,0.32618,0.13734,0.32618,0.32617
			c0,0.17171-0.13734,0.32624-0.32618,0.32624C32.03435,12.79287,31.89701,12.63835,31.89701,12.46663L31.89701,12.46663z
			 M32.20599,12.70702c0.13734,0,0.25751-0.10304,0.25751-0.24038c0-0.13728-0.12016-0.24032-0.25751-0.24032
			c-0.12016,0-0.24032,0.10305-0.24032,0.24032C31.96568,12.60398,32.08583,12.70702,32.20599,12.70702L32.20599,12.70702z
			 M32.17168,12.60398h-0.06866v-0.27462h0.12016c0.01719,0,0.05149,0,0.06867,0c0.03431,0.01712,0.03431,0.05149,0.03431,0.08579
			c0,0.01719-0.01713,0.05149-0.05149,0.06868l0.06867,0.12015h-0.08585L32.22318,12.501h-0.05149V12.60398v-0.15446h0.03431
			c0.01719,0,0.03437,0,0.03437-0.01718c0.01712,0,0.01712-0.01719,0.01712-0.03431c0,0,0-0.01719-0.01712-0.01719
			c0-0.01719-0.01719,0-0.03437,0h-0.03431v0.06867V12.60398L32.17168,12.60398z"/>
		<path class="st5" d="M13.23607,13.0332c-0.32617,0.08584-0.56656,0.13734-0.80687,0.13734
			c-0.51501,0-0.82406-0.32618-0.82406-0.90986c0-0.12022,0.01718-0.24038,0.03436-0.37773l0.06868-0.39484l0.05148-0.32617
			l0.46353-2.81541h1.03007L13.13303,8.9645h0.6524l-0.15453,1.03008h-0.65235l-0.27468,1.68236
			c-0.01718,0.08586-0.01718,0.13734-0.01718,0.17171c0,0.22314,0.10298,0.30899,0.36053,0.30899
			c0.12016,0,0.22315-0.01718,0.32618-0.0343L13.23607,13.0332L13.23607,13.0332z"/>
		<path class="st5" d="M16.56655,12.99883c-0.37772,0.10304-0.72103,0.15453-1.09874,0.15453
			c-1.16735,0-1.8369-0.61805-1.8369-1.8369c0-1.42492,0.7897-2.45493,1.88839-2.45493c0.87554,0,1.4421,0.58368,1.4421,1.49354
			c0,0.30904-0.03437,0.60087-0.12016,1.01289h-2.14594c-0.01718,0.06867-0.01718,0.10298-0.01718,0.13734
			c0,0.48071,0.32617,0.72102,0.94422,0.72102c0.39484,0,0.7382-0.08585,1.11586-0.2575L16.56655,12.99883L16.56655,12.99883z
			 M15.93132,10.5439c0-0.0858,0-0.15447,0-0.20596c0-0.34336-0.18883-0.53219-0.515-0.53219
			c-0.34336,0-0.58368,0.2575-0.68672,0.73815H15.93132L15.93132,10.5439z"/>
		<polygon class="st5" points="4.99572,13.08468 3.93134,13.08468 4.54938,9.1877 3.15878,13.08468 2.42063,13.08468 
			2.33477,9.20488 1.68242,13.08468 0.63517,13.08468 1.47641,8.02029 3.03861,8.02029 3.07297,11.14476 4.12017,8.02029 
			5.8369,8.02029 4.99572,13.08468 		"/>
		<path class="st5" d="M7.588,11.24779c-0.10304-0.01718-0.13734-0.01718-0.20601-0.01718
			c-0.61805,0-0.92704,0.24032-0.92704,0.61804c0,0.2575,0.15453,0.42915,0.39484,0.42915
			C7.3648,12.2778,7.57081,11.84865,7.588,11.24779L7.588,11.24779z M8.44636,13.08468H7.51933l0.01718-0.42915
			c-0.24038,0.32617-0.56656,0.49782-1.13305,0.49782c-0.51506,0-0.96139-0.46352-0.96139-1.13306
			c0-0.18883,0.03436-0.36048,0.08585-0.53219c0.17165-0.63517,0.80687-1.03001,1.7854-1.04719c0.12016,0,0.30899,0,0.4807,0.01718
			c0.03431-0.13734,0.03431-0.18883,0.03431-0.27468c0-0.27469-0.22314-0.36055-0.72102-0.36055
			c-0.30899,0-0.65235,0.05155-0.89273,0.13735L6.0601,9.99458L5.99143,10.0117l0.15447-0.92703
			C6.64377,8.9302,7.00432,8.86152,7.39916,8.86152c0.92704,0,1.42486,0.42916,1.42486,1.21885
			c0,0.20603,0.01718,0.36055-0.05149,0.80688l-0.24032,1.4764l-0.03436,0.25751l-0.01718,0.20601l-0.01714,0.13734
			L8.44636,13.08468L8.44636,13.08468z"/>
		<path class="st5" d="M21.7511,8.99887c0.30899,0,0.58368,0.0858,0.96134,0.27469l0.18884-1.09874
			c-0.10298-0.05149-0.13734-0.05149-0.27469-0.10299l-0.42915-0.12021c-0.13734-0.03431-0.30899-0.05149-0.49789-0.05149
			c-0.53219,0-0.84118,0.01718-1.16735,0.20601c-0.17166,0.12016-0.39485,0.27469-0.63517,0.54937l-0.13734-0.03436
			l-1.09875,0.77256l0.05149-0.42921h-1.13305l-0.66954,4.12018h1.08156l0.39485-2.21456c0,0,0.15451-0.30905,0.22319-0.41203
			c0.20601-0.2575,0.37767-0.2575,0.60086-0.2575c0.0343,0,0.06867,0,0.08586,0c-0.03437,0.24032-0.05156,0.49782-0.05156,0.78969
			c0,1.33907,0.75539,2.18025,1.92275,2.18025c0.29186,0,0.54937-0.03436,0.94422-0.13734l0.18883-1.16736
			c-0.3433,0.18884-0.65235,0.27462-0.90986,0.27462c-0.63517,0-1.01288-0.48065-1.01288-1.23603
			C20.37767,9.78857,20.94421,8.99887,21.7511,8.99887L21.7511,8.99887z"/>
		<path class="st5" d="M30.86693,8.02029l-0.24032,1.4421c-0.25751-0.39485-0.5665-0.58374-0.97853-0.58374
			c-0.56656,0-1.09875,0.32622-1.42492,0.94421V9.80575l-0.68665-0.41203l0.06867-0.42921h-1.15024l-0.65235,4.12018h1.06439
			l0.36048-2.21456c0,0,0.27469-0.30905,0.34336-0.41203c0.17165-0.20601,0.34335-0.24038,0.4807-0.2575
			c-0.12016,0.3433-0.18883,0.75533-0.18883,1.21884c0,1.03008,0.53219,1.71674,1.32188,1.71674
			c0.39485,0,0.70384-0.13735,0.99571-0.46352l-0.05149,0.41203h1.01283l0.82406-5.06439H30.86693L30.86693,8.02029z
			 M29.54505,12.10615c-0.36049,0-0.54932-0.27469-0.54932-0.80687c0-0.80687,0.34329-1.39055,0.84118-1.39055
			c0.37767,0,0.5665,0.29187,0.5665,0.80687C30.40341,11.5396,30.06011,12.10615,29.54505,12.10615L29.54505,12.10615z"/>
		<path class="st5" d="M24.5837,11.24779c-0.10298-0.01718-0.13734-0.01718-0.20602-0.01718
			c-0.61804,0-0.92704,0.24032-0.92704,0.61804c0,0.2575,0.15452,0.42915,0.39484,0.42915
			C24.36049,12.2778,24.56651,11.84865,24.5837,11.24779L24.5837,11.24779z M25.44206,13.08468h-0.94422l0.03436-0.42915
			c-0.24039,0.32617-0.56656,0.49782-1.13306,0.49782c-0.53218,0-0.9957-0.44634-0.9957-1.13306
			c0-0.97852,0.7382-1.57938,1.90555-1.57938c0.12016,0,0.30899,0,0.46353,0.01718c0.03436-0.13734,0.05149-0.18883,0.05149-0.27468
			c0-0.27469-0.22314-0.36055-0.73821-0.36055c-0.29181,0-0.65235,0.05155-0.89267,0.13735L23.0558,9.99458l-0.06867,0.01712
			l0.15452-0.92703c0.49782-0.15447,0.85837-0.22314,1.25322-0.22314c0.92704,0,1.40773,0.42916,1.40773,1.21885
			c0,0.20603,0.03432,0.36055-0.05154,0.80688l-0.22314,1.4764l-0.03436,0.25751l-0.03432,0.20601l-0.01718,0.13734V13.08468
			L25.44206,13.08468z"/>
		<path class="st5" d="M10.69528,9.84006c0.206,0,0.49787,0.01718,0.80687,0.06867l0.15453-0.96141
			c-0.30906-0.03431-0.72108-0.0858-0.9614-0.0858c-1.20173,0-1.59658,0.65235-1.59658,1.40774
			c0,0.49782,0.22321,0.85836,0.80689,1.13305c0.42915,0.20596,0.49782,0.24032,0.49782,0.42915
			c0,0.25751-0.22314,0.41203-0.63517,0.41203c-0.32618,0-0.63517-0.05149-0.97853-0.17171l-0.12016,0.94422l0.01713,0.01718
			l0.20601,0.03431c0.06867,0.01718,0.15453,0.03436,0.27469,0.05154c0.2575,0.01714,0.4807,0.03431,0.61804,0.03431
			c1.20172,0,1.69954-0.46352,1.69954-1.37338c0-0.56654-0.27469-0.90985-0.80687-1.15022
			c-0.46352-0.20601-0.51501-0.24032-0.51501-0.42915C10.16309,10.0117,10.3691,9.84006,10.69528,9.84006L10.69528,9.84006z"/>
		<path class="st4" d="M23.19313,7.84864L23.0043,8.94733c-0.37772-0.18883-0.65235-0.27463-0.9614-0.27463
			c-0.80688,0-1.37337,0.7897-1.37337,1.90557c0,0.7725,0.37766,1.23602,1.01289,1.23602c0.2575,0,0.5665-0.0858,0.90985-0.2575
			l-0.18883,1.15024c-0.39485,0.10298-0.65235,0.15453-0.94423,0.15453c-1.16735,0-1.88843-0.84125-1.88843-2.19744
			c0-1.80258,0.99571-3.07297,2.42063-3.07297c0.18883,0,0.36054,0.01718,0.49788,0.05149l0.42915,0.10303
			C23.0558,7.79716,23.0901,7.81434,23.19313,7.84864L23.19313,7.84864z"/>
		<path class="st4" d="M19.72532,8.60402c-0.03431,0-0.06867,0-0.10298,0c-0.36054,0-0.56656,0.17165-0.89273,0.66953
			l0.10304-0.63522h-0.97859l-0.66953,4.12018h1.08156c0.39484-2.52361,0.49788-2.95276,1.01289-2.95276
			c0.0343,0,0.0343,0,0.06867,0c0.10297-0.49789,0.24032-0.85843,0.41203-1.1846L19.72532,8.60402L19.72532,8.60402z"/>
		<path class="st4" d="M13.51075,12.70702c-0.29186,0.10298-0.53219,0.13734-0.77256,0.13734
			c-0.54932,0-0.85837-0.30906-0.85837-0.90985c0-0.10304,0.01719-0.24038,0.03437-0.36054l0.06867-0.41203l0.05149-0.32617
			l0.46352-2.81547h1.06437l-0.12016,0.61804h0.54932l-0.13734,1.01289h-0.54932l-0.29187,1.71673
			c-0.01718,0.06867-0.01718,0.12016-0.01718,0.17165c0,0.20602,0.10303,0.29187,0.36053,0.29187
			c0.12016,0,0.2232,0,0.29187-0.03431L13.51075,12.70702L13.51075,12.70702z"/>
		<path class="st4" d="M9.37339,9.94303c0,0.51506,0.24032,0.87555,0.80689,1.15023
			c0.44634,0.20601,0.51501,0.27469,0.51501,0.44633c0,0.25756-0.18884,0.37773-0.61805,0.37773
			c-0.32617,0-0.61798-0.05149-0.96135-0.15453l-0.15453,0.94422l0.05149,0.01719l0.1889,0.03431
			c0.0686,0.01718,0.15446,0.03436,0.2918,0.03436c0.24032,0.03431,0.44634,0.03431,0.58368,0.03431
			c1.13305,0,1.66524-0.42915,1.66524-1.37338c0-0.56654-0.22313-0.89272-0.75533-1.15022
			c-0.46352-0.20601-0.51506-0.2575-0.51506-0.44634c0-0.22321,0.18889-0.32617,0.53219-0.32617
			c0.20601,0,0.49788,0.01712,0.77257,0.05148l0.15446-0.94422c-0.27462-0.05149-0.70384-0.08585-0.94416-0.08585
			C9.78542,8.55248,9.35621,9.1877,9.37339,9.94303L9.37339,9.94303z"/>
		<path class="st4" d="M31.4163,12.75851h-1.01289l0.05155-0.39485C30.16309,12.67265,29.8541,12.81,29.45925,12.81
			c-0.78975,0-1.30476-0.66954-1.30476-1.69955c0-1.37336,0.80687-2.54078,1.75109-2.54078
			c0.42915,0,0.7382,0.18883,1.03002,0.56654l0.24037-1.44209h1.06439L31.4163,12.75851L31.4163,12.75851z M29.83692,11.79716
			c0.49782,0,0.84118-0.58373,0.84118-1.3906c0-0.53213-0.18883-0.80682-0.5665-0.80682c-0.4807,0-0.84124,0.56649-0.84124,1.37336
			C29.27036,11.52247,29.45925,11.79716,29.83692,11.79716L29.83692,11.79716z"/>
		<path class="st4" d="M16.80686,12.67265c-0.37767,0.12022-0.72102,0.17171-1.11586,0.17171
			c-1.20172,0-1.81977-0.63523-1.81977-1.85407c0-1.40774,0.7897-2.45493,1.87126-2.45493
			c0.89273,0,1.45922,0.58368,1.45922,1.49354c0,0.30905-0.0343,0.60086-0.13734,1.03007h-2.12876
			c-0.01718,0.05149-0.01718,0.0858-0.01718,0.12016c0,0.4807,0.32623,0.72102,0.94422,0.72102
			c0.39484,0,0.7382-0.06867,1.11586-0.2575L16.80686,12.67265L16.80686,12.67265z M16.206,10.21772c0-0.0858,0-0.15447,0-0.20602
			c0-0.34329-0.18884-0.53219-0.515-0.53219c-0.34336,0-0.58368,0.25757-0.68671,0.73821H16.206L16.206,10.21772z"/>
		<polygon class="st4" points="5.27041,12.75851 4.20603,12.75851 4.82401,8.86152 3.43345,12.75851 2.69525,12.75851 
			2.60946,8.89583 1.95711,12.75851 0.9614,12.75851 1.80259,7.69412 3.34766,7.69412 3.39915,10.83576 4.42916,7.69412 
			6.11159,7.69412 5.27041,12.75851 		"/>
		<path class="st4" d="M7.93135,10.92161c-0.10304,0-0.15452-0.01718-0.24038-0.01718c-0.60086,0-0.90986,0.22319-0.90986,0.63516
			c0,0.25756,0.13734,0.41203,0.37767,0.41203C7.60518,11.95163,7.91417,11.5396,7.93135,10.92161L7.93135,10.92161z
			 M8.72104,12.75851H7.82831l0.01718-0.42915c-0.27469,0.3433-0.63523,0.49782-1.13305,0.49782
			c-0.58368,0-0.97852-0.44634-0.97852-1.11587c0-1.01289,0.68666-1.59657,1.88838-1.59657
			c0.12016,0,0.27469,0.01718,0.4464,0.03431C8.103,10.0117,8.103,9.96022,8.103,9.89154c0-0.27469-0.18883-0.37767-0.68671-0.37767
			c-0.30899,0-0.65236,0.03431-0.89268,0.10298L6.36909,9.66841L6.26611,9.68553L6.42058,8.7585
			c0.53219-0.15447,0.89273-0.20601,1.28758-0.20601c0.92704,0,1.42492,0.41202,1.42492,1.20172
			c0,0.20602-0.01719,0.36054-0.08586,0.82406l-0.24037,1.45922l-0.03431,0.2575L8.75535,12.501l-0.01717,0.15453L8.72104,12.75851
			L8.72104,12.75851z"/>
		<path class="st4" d="M24.92706,10.92161c-0.12016,0-0.17171-0.01718-0.24039-0.01718c-0.61798,0-0.92704,0.22319-0.92704,0.63516
			c0,0.25756,0.15452,0.41203,0.39484,0.41203C24.5837,11.95163,24.90987,11.5396,24.92706,10.92161L24.92706,10.92161z
			 M25.71674,12.75851h-0.89273l0.01719-0.42915c-0.27469,0.3433-0.63517,0.49782-1.13306,0.49782
			c-0.58367,0-0.97852-0.44634-0.97852-1.11587c0-1.01289,0.68671-1.59657,1.88837-1.59657
			c0.12023,0,0.27469,0.01718,0.42922,0.03431c0.03431-0.13735,0.05149-0.18883,0.05149-0.25751
			c0-0.27469-0.18883-0.37767-0.68666-0.37767c-0.30905,0-0.66954,0.03431-0.90991,0.10298l-0.13734,0.05155l-0.10298,0.01712
			l0.15452-0.92703c0.53219-0.15447,0.89267-0.20601,1.28752-0.20601c0.92704,0,1.40773,0.41202,1.40773,1.20172
			c0,0.20602,0,0.36054-0.08585,0.82406l-0.22314,1.45922l-0.03436,0.2575L25.73392,12.501l-0.01718,0.15453V12.75851
			L25.71674,12.75851z"/>
		<path class="st4" d="M28.60088,8.60402c-0.03436,0-0.06867,0-0.10303,0c-0.36053,0-0.5665,0.17165-0.89267,0.66953
			l0.10299-0.63522h-0.97853l-0.65241,4.12018h1.06438c0.39491-2.52361,0.49788-2.95276,1.01289-2.95276
			c0.03436,0,0.03436,0,0.06867,0c0.10303-0.49789,0.24037-0.85843,0.41202-1.1846L28.60088,8.60402L28.60088,8.60402z"/>
	</g>
</g>
</svg>
