<?xml version="1.0" encoding="utf-8"?>
<!-- Generator: Adobe Illustrator 19.2.1, SVG Export Plug-In . SVG Version: 6.00 Build 0)  -->
<svg version="1.0" id="Ebene_1" xmlns="http://www.w3.org/2000/svg" xmlns:xlink="http://www.w3.org/1999/xlink" x="0px" y="0px"
	 viewBox="0 0 66.36143 20" style="enable-background:new 0 0 66.36143 20;" xml:space="preserve">
<style type="text/css">
	.st0{fill:#FFFFFF;}
	.st1{fill:#007FC3;}
	.st2{fill:#FF0000;}
	.st3{fill:#292526;}
	.st4{fill:#EBEBED;}
	.st5{fill:#007FC2;}
</style>
<g>
	<path class="st0" d="M62.82732,19.44304H3.62962c-1.65685,0-3-1.34315-3-3V3.62857c0-1.65685,1.34315-3,3-3h59.1977
		c1.65685,0,3,1.34315,3,3v12.81447C65.82732,18.0999,64.48417,19.44304,62.82732,19.44304z"/>
	<g>
		<g id="layer1" transform="translate(-81.555516,-219.74826)">
			<g id="g4785" transform="translate(35.461052,35.387522)">
				<g id="g2349" transform="matrix(53.564733,0,0,-53.564733,264.88072,399.53834)">
					<g id="path2351">
						<path class="st1" d="M-3.98811,3.91596v-0.0497h0.02775v0.06473h-0.01272C-3.98122,3.93098-3.98811,3.92434-3.98811,3.91596z
							 M-3.98811,3.74426c0-0.00883,0.00689-0.0158,0.01523-0.0158h0.01252v0.05063h0.0866V3.6596h-0.16198
							c-0.02143,0-0.03702,0.01742-0.03702,0.0388V3.961c0,0.02151,0.01559,0.03884,0.03702,0.03884h0.16198v-0.2007h-0.11435
							V3.74426"/>
					</g>
				</g>
				<g id="g2357" transform="matrix(53.564733,0,0,-53.564733,607.58788,738.54954)">
					<g id="path2359">
						<path class="st2" d="M-10.12696,9.9886h-0.1589l-0.00182,0.0002l-0.0017,0.00024l-0.00186,0.00032l-0.0017,0.00045
							l-0.00162,0.00061l-0.0017,0.00057l-0.00162,0.00057c-0.00523,0.00235-0.00859,0.00474-0.01272,0.00871
							c-0.00356,0.00377-0.00644,0.00822-0.00834,0.01308l-0.00057,0.00158l-0.00049,0.00186l-0.00045,0.0017l-0.00045,0.0017
							l-0.00024,0.00186l-0.00024,0.0017l-0.00008,0.00194l-0.00012,0.0017v0.26292
							c0.00024,0.01021,0.00369,0.01932,0.01077,0.02669c0.00348,0.00373,0.00778,0.00672,0.01248,0.00871l0.00158,0.00073
							l0.00162,0.00057l0.00174,0.00045l0.00158,0.00045l0.00182,0.00036l0.00174,0.0002l0.0017,0.00024l0.00182,0.00012h0.15777
							v-0.13347h-0.08291v0.06481c-0.0128,0.00203-0.02665-0.00089-0.02742-0.01592v0.00587l-0.00008-0.00608l0.00008,0.0002
							v-0.17081l-0.00008,0.00024l0.00008-0.0015v0.00126c0.00081-0.01507,0.01458-0.01803,0.02762-0.01588v0.06939l0.00037,0.00126
							h0.08235V9.9886"/>
					</g>
				</g>
				<g id="g2365" transform="matrix(53.564733,0,0,-53.564733,398.52476,738.54954)">
					<g id="path2367">
						<path class="st3" d="M-6.38205,9.9886c-0.0096,0.0004-0.01884,0.00486-0.02556,0.01167
							c-0.00356,0.00377-0.00644,0.00822-0.00834,0.01308l-0.00057,0.00158l-0.00049,0.00186l-0.00045,0.0017l-0.00045,0.0017
							l-0.00024,0.00186l-0.00024,0.0017l-0.00008,0.00194l-0.00012,0.0017v0.08069h0.04982V9.9886H-6.38205z M-6.41859,10.29032
							c0.00097,0.02742,0.02341,0.042,0.04982,0.03852v-0.2007h-0.04982V10.29032"/>
					</g>
				</g>
			</g>
		</g>
		<g>
			<g>
				<path class="st4" d="M63.17435,20H3.18708C0.6661,20,0,17.80839,0,16.64946V3.35054C0,0.70035,2.08491,0,3.18708,0h59.98727
					c2.52049,0,3.18708,2.19161,3.18708,3.35054v13.29891C66.36143,19.30013,64.27652,20,63.17435,20z M3.18855,1.00232
					C2.95999,1.00477,1.00232,1.0914,1.00232,3.35054v13.29891c0.00147,0.23883,0.07684,2.34822,2.18475,2.34822h59.98727
					c0.22122-0.00196,2.18475-0.08614,2.18475-2.34822V3.35054c-0.00195-0.23884-0.07732-2.34822-2.18475-2.34822H3.18708H3.18855z"
					/>
			</g>
		</g>
		<g>
			<g>
				<path class="st5" d="M23.05746,12.89126V7.49615h1.0987v4.47855h2.73116v0.91656H23.05746z"/>
			</g>
			<g>
				<path class="st5" d="M28.44186,10.15279l-0.94578-0.17045c0.10617-0.38084,0.28928-0.66331,0.54837-0.84594
					c0.26006-0.18312,0.64578-0.27467,1.15811-0.27467c0.46461,0,0.81136,0.05503,1.03928,0.1651
					c0.22695,0.11006,0.38766,0.24984,0.48019,0.41932c0.09253,0.16948,0.13928,0.48019,0.13928,0.93311l-0.01169,1.21655
					c0,0.34675,0.01753,0.60194,0.05065,0.76655s0.09545,0.34091,0.18701,0.52889h-1.03149
					c-0.02727-0.06916-0.06039-0.17143-0.10032-0.30779c-0.01753-0.06234-0.02922-0.10325-0.03701-0.12273
					c-0.17825,0.17338-0.36818,0.30292-0.57078,0.38961c-0.20357,0.08669-0.4198,0.12954-0.64967,0.12954
					c-0.40617,0-0.72565-0.11006-0.95941-0.33019c-0.23376-0.22013-0.35065-0.4987-0.35065-0.83474
					c0-0.22305,0.05357-0.42078,0.15974-0.59513c0.10617-0.17435,0.25519-0.30828,0.44708-0.40081
					c0.19188-0.09302,0.4685-0.17386,0.82889-0.24302c0.48798-0.09156,0.825-0.17679,1.01298-0.25617V10.2161
					c0-0.20065-0.0487-0.34334-0.14805-0.42857c-0.09935-0.08571-0.28539-0.12808-0.56006-0.12808
					c-0.18604,0-0.33019,0.03653-0.43441,0.10958C28.58991,9.84159,28.50614,9.96968,28.44186,10.15279z M29.83665,10.99873
					c-0.13344,0.04481-0.3448,0.09789-0.63409,0.15974c-0.28928,0.06185-0.47824,0.12224-0.56785,0.18165
					c-0.13636,0.09594-0.20357,0.21867-0.20357,0.36769c0,0.14513,0.05357,0.27175,0.16266,0.37889
					c0.10909,0.10519,0.2474,0.15877,0.41591,0.15877c0.18799,0,0.36721-0.06136,0.53766-0.18604
					c0.12662-0.09351,0.20942-0.20844,0.24837-0.3448c0.02727-0.08864,0.04091-0.25812,0.04091-0.50795V10.99873z"/>
			</g>
			<g>
				<path class="st5" d="M31.52171,11.76723l1.0461-0.15974c0.0448,0.2026,0.13539,0.35649,0.27078,0.46169
					c0.13636,0.10519,0.3263,0.15779,0.57175,0.15779c0.2698,0,0.4724-0.0487,0.60876-0.14805
					c0.09156-0.07013,0.13734-0.16169,0.13734-0.27857c0-0.0789-0.02533-0.14416-0.075-0.19675
					c-0.05162-0.0487-0.16753-0.09545-0.3487-0.13734c-0.84058-0.18555-1.37434-0.35503-1.59934-0.50844
					c-0.31169-0.21234-0.46753-0.50795-0.46753-0.88636c0-0.34139,0.13539-0.62873,0.4052-0.86104
					c0.26883-0.2323,0.68766-0.3487,1.25356-0.3487c0.53961,0,0.93993,0.08766,1.20292,0.26347
					c0.26201,0.17532,0.44221,0.43539,0.54156,0.77922l-0.98376,0.18165c-0.04188-0.15341-0.12175-0.27078-0.23863-0.3526
					c-0.11786-0.08133-0.28539-0.12224-0.50357-0.12224c-0.27467,0-0.47046,0.03847-0.58928,0.11493
					c-0.07987,0.05455-0.11883,0.12516-0.11883,0.21136c0,0.07451,0.03409,0.13734,0.10324,0.18945
					c0.09448,0.06915,0.41883,0.16704,0.97402,0.29318c0.55519,0.12614,0.94383,0.28052,1.16396,0.46363
					c0.21721,0.18555,0.3263,0.44415,0.3263,0.77532c0,0.36136-0.15097,0.67208-0.45292,0.93214
					c-0.30194,0.25909-0.74805,0.38863-1.33928,0.38863c-0.53669,0-0.96136-0.10812-1.27499-0.3263
					C31.82269,12.43541,31.61814,12.14029,31.52171,11.76723z"/>
			</g>
			<g>
				<path class="st5" d="M37.92201,8.95085v0.83084H37.21v1.58814c0,0.32143,0.00682,0.50844,0.02045,0.56201
					c0.01364,0.05357,0.04383,0.0974,0.09253,0.13149c0.0487,0.03506,0.10714,0.0526,0.1763,0.0526
					c0.09643,0,0.23571-0.03312,0.41883-0.10032l0.08961,0.80941c-0.24253,0.10325-0.51721,0.15487-0.82402,0.15487
					c-0.18798,0-0.35747-0.03117-0.50844-0.09448c-0.15097-0.06234-0.26104-0.14416-0.33214-0.24448
					c-0.07013-0.10032-0.11883-0.23571-0.1461-0.40617c-0.0224-0.12078-0.03312-0.36623-0.03312-0.73441V9.78169h-0.47922V8.95085
					h0.47922V8.16774L37.21,7.55897v1.39188H37.92201z"/>
			</g>
			<g>
				<path class="st5" d="M38.2785,11.76723l1.0461-0.15974c0.04481,0.2026,0.13539,0.35649,0.27078,0.46169
					c0.13636,0.10519,0.3263,0.15779,0.57175,0.15779c0.26981,0,0.4724-0.0487,0.60876-0.14805
					c0.09156-0.07013,0.13734-0.16169,0.13734-0.27857c0-0.0789-0.02533-0.14416-0.075-0.19675
					c-0.05162-0.0487-0.16753-0.09545-0.3487-0.13734c-0.84058-0.18555-1.37435-0.35503-1.59935-0.50844
					c-0.31169-0.21234-0.46753-0.50795-0.46753-0.88636c0-0.34139,0.13539-0.62873,0.40519-0.86104
					c0.26883-0.2323,0.68766-0.3487,1.25357-0.3487c0.53961,0,0.93993,0.08766,1.20292,0.26347
					c0.26201,0.17532,0.44221,0.43539,0.54156,0.77922l-0.98376,0.18165c-0.04189-0.15341-0.12175-0.27078-0.23864-0.3526
					c-0.11786-0.08133-0.28539-0.12224-0.50357-0.12224c-0.27467,0-0.47045,0.03847-0.58928,0.11493
					c-0.07987,0.05455-0.11883,0.12516-0.11883,0.21136c0,0.07451,0.03409,0.13734,0.10325,0.18945
					c0.09448,0.06915,0.41883,0.16704,0.97402,0.29318c0.55519,0.12614,0.94382,0.28052,1.16396,0.46363
					c0.21721,0.18555,0.3263,0.44415,0.3263,0.77532c0,0.36136-0.15097,0.67208-0.45292,0.93214
					c-0.30195,0.25909-0.74805,0.38863-1.33928,0.38863c-0.53669,0-0.96136-0.10812-1.27499-0.3263
					C38.57948,12.43541,38.37494,12.14029,38.2785,11.76723z"/>
			</g>
			<g>
				<path class="st5" d="M46.30834,10.11578l-1.02856,0.18555c-0.03409-0.20552-0.11299-0.3599-0.23571-0.46363
					c-0.12175-0.10422-0.28052-0.15584-0.4763-0.15584c-0.26006,0-0.46656,0.08961-0.62143,0.26883s-0.23182,0.47922-0.23182,0.9
					c0,0.46753,0.07792,0.79772,0.23571,0.99058c0.15681,0.19286,0.36721,0.28928,0.63214,0.28928
					c0.19773,0,0.36039-0.05552,0.48604-0.16851c0.12663-0.11299,0.21526-0.30584,0.26786-0.581l1.0237,0.17386
					c-0.10617,0.47045-0.31071,0.82597-0.61266,1.06558c-0.30195,0.23961-0.70617,0.35941-1.21266,0.35941
					c-0.57662,0-1.03636-0.18117-1.37922-0.54448c-0.34188-0.36428-0.51331-0.86688-0.51331-1.51071
					c0-0.65065,0.17143-1.15714,0.51526-1.51947c0.34383-0.36234,0.80941-0.5435,1.39577-0.5435
					c0.47922,0,0.86104,0.10325,1.14448,0.30974C45.98107,9.37796,46.18464,9.69257,46.30834,10.11578z"/>
			</g>
			<g>
				<path class="st5" d="M48.13756,7.45134V9.4515c0.33604-0.39302,0.73831-0.58977,1.20584-0.58977
					c0.23961,0,0.45584,0.04432,0.6487,0.13344c0.19383,0.08912,0.33896,0.20308,0.43636,0.34139
					c0.0974,0.13831,0.16461,0.29172,0.20065,0.46023c0.03604,0.16802,0.05357,0.42906,0.05357,0.78263v2.31184h-1.04221v-2.08149
					c0-0.41298-0.02045-0.67548-0.05941-0.78701c-0.03994-0.11104-0.11007-0.19967-0.21039-0.26493
					c-0.10033-0.06575-0.225-0.09838-0.37597-0.09838c-0.17338,0-0.32825,0.04188-0.46461,0.12614
					c-0.13539,0.08425-0.23474,0.21088-0.29805,0.38036c-0.06331,0.16948-0.09448,0.4198-0.09448,0.75146v1.97386h-1.04318V7.45134
					H48.13756z"/>
			</g>
			<g>
				<path class="st5" d="M52.73884,12.89126h-1.04318V8.95085h0.96915v0.56006c0.16558-0.26445,0.31461-0.4388,0.44708-0.52305
					c0.13149-0.08425,0.28247-0.12614,0.45-0.12614c0.23766,0,0.46656,0.06526,0.68669,0.19675l-0.3224,0.90876
					c-0.1763-0.11347-0.33896-0.17045-0.48993-0.17045c-0.1461,0-0.26981,0.03993-0.3711,0.12029
					c-0.1013,0.08036-0.18117,0.22597-0.23961,0.43636c-0.05747,0.2099-0.08669,0.65065-0.08669,1.32029V12.89126z"/>
			</g>
			<g>
				<path class="st5" d="M54.6976,8.41611V7.45134h1.0422v0.96477H54.6976z M54.6976,12.89126V8.95085h1.0422v3.94041H54.6976z"/>
			</g>
			<g>
				<path class="st5" d="M56.35149,8.95085h0.57954V8.65377c0-0.33165,0.03506-0.57906,0.10519-0.74221
					c0.0711-0.16315,0.20065-0.2961,0.38961-0.39886c0.18993-0.10276,0.42857-0.1539,0.71785-0.1539
					c0.29708,0,0.58831,0.04432,0.87273,0.13344l-0.14124,0.72759c-0.16558-0.03994-0.32532-0.05941-0.47922-0.05941
					c-0.15,0-0.25909,0.03506-0.32435,0.10568c-0.06526,0.07062-0.09838,0.20601-0.09838,0.40617v0.27857h0.77922v0.81964h-0.77922
					v3.12077h-1.0422V9.77049h-0.57954V8.95085z"/>
			</g>
			<g>
				<path class="st5" d="M61.1466,8.95085v0.83084h-0.71201v1.58814c0,0.32143,0.00682,0.50844,0.02045,0.56201
					c0.01364,0.05357,0.04383,0.0974,0.09253,0.13149c0.0487,0.03506,0.10714,0.0526,0.1763,0.0526
					c0.09643,0,0.23571-0.03312,0.41883-0.10032l0.08961,0.80941c-0.24253,0.10325-0.51721,0.15487-0.82402,0.15487
					c-0.18798,0-0.35746-0.03117-0.50844-0.09448c-0.15097-0.06234-0.26104-0.14416-0.33214-0.24448
					c-0.07013-0.10032-0.11883-0.23571-0.1461-0.40617c-0.0224-0.12078-0.03312-0.36623-0.03312-0.73441V9.78169h-0.47922V8.95085
					h0.47922V8.16774l1.0461-0.60876v1.39188H61.1466z"/>
			</g>
		</g>
	</g>
</g>
</svg>
